<?xml version="1.0" encoding="UTF-8"?>
<svg xmlns="http://www.w3.org/2000/svg" xmlns:xlink="http://www.w3.org/1999/xlink"
     width="84.8528137423857" height="84.8528137423857" viewBox="0 0 42.42640687119285 42.42640687119285">
<defs>
</defs>
<g stroke-width="1.0" stroke="black" fill="none" transform="translate(42.42640687119285,21.213203435596427)">
<g>
<path d="M-14.14213562373095,-14.14213562373095 C-1.414213562373094,-14.14213562373095,-12.727922061357855,0.0,0.0,0.0" stroke-width="2.0" stroke="white" />
<path d="M-14.14213562373095,-14.14213562373095 C-1.414213562373094,-14.14213562373095,-12.727922061357855,0.0,0.0,0.0" />
</g>
<g>
<path d="M-14.14213562373095,14.14213562373095 C-26.870057685088803,14.14213562373095,-15.556349186104043,0.0,-28.2842712474619,0.0" stroke-width="2.0" stroke="white" />
<path d="M-14.14213562373095,14.14213562373095 C-26.870057685088803,14.14213562373095,-15.556349186104043,0.0,-28.2842712474619,0.0" />
</g>
<g>
<path d="M0.0,0.0 C-12.727922061357855,0.0,-1.414213562373094,14.14213562373095,-14.14213562373095,14.14213562373095" stroke-width="2.0" stroke="white" />
<path d="M0.0,0.0 C-12.727922061357855,0.0,-1.414213562373094,14.14213562373095,-14.14213562373095,14.14213562373095" />
</g>
<g>
<path d="M-28.2842712474619,0.0 C-15.556349186104043,0.0,-26.870057685088803,-14.14213562373095,-14.14213562373095,-14.14213562373095" stroke-width="2.0" stroke="white" />
<path d="M-28.2842712474619,0.0 C-15.556349186104043,0.0,-26.870057685088803,-14.14213562373095,-14.14213562373095,-14.14213562373095" />
</g>
</g>
</svg>